<mxfile host="app.diagrams.net" modified="2021-02-27T20:46:42.447Z" agent="5.0 (Macintosh; Intel Mac OS X 10_15_7) AppleWebKit/537.36 (KHTML, like Gecko) Chrome/88.0.4324.192 Safari/537.36" etag="KlA0Z1oLFulZKSv6GC3C" version="14.4.3" type="github">
  <diagram id="R2lEEEUBdFMjLlhIrx00" name="Page-1">
    <mxGraphModel dx="1186" dy="741" grid="0" gridSize="10" guides="1" tooltips="1" connect="1" arrows="1" fold="1" page="0" pageScale="1" pageWidth="850" pageHeight="1100" math="0" shadow="0" extFonts="Permanent Marker^https://fonts.googleapis.com/css?family=Permanent+Marker">
      <root>
        <mxCell id="0" />
        <mxCell id="1" parent="0" />
        <mxCell id="C-vyLk0tnHw3VtMMgP7b-1" value="" style="edgeStyle=entityRelationEdgeStyle;endArrow=ERzeroToMany;startArrow=ERmandOne;endFill=1;startFill=0;exitX=1;exitY=0.5;exitDx=0;exitDy=0;entryX=0;entryY=0.5;entryDx=0;entryDy=0;" parent="1" source="VuYZL3EIZXyvQXrnLhFN-1" target="VuYZL3EIZXyvQXrnLhFN-3" edge="1">
          <mxGeometry width="100" height="100" relative="1" as="geometry">
            <mxPoint x="230" y="165" as="sourcePoint" />
            <mxPoint x="450" y="195" as="targetPoint" />
          </mxGeometry>
        </mxCell>
        <mxCell id="C-vyLk0tnHw3VtMMgP7b-12" value="" style="edgeStyle=entityRelationEdgeStyle;endArrow=ERzeroToMany;startArrow=ERmandOne;endFill=1;startFill=0;exitX=0;exitY=0.5;exitDx=0;exitDy=0;entryX=1;entryY=0.5;entryDx=0;entryDy=0;" parent="1" source="VuYZL3EIZXyvQXrnLhFN-4" target="VuYZL3EIZXyvQXrnLhFN-3" edge="1">
          <mxGeometry width="100" height="100" relative="1" as="geometry">
            <mxPoint x="700" y="165" as="sourcePoint" />
            <mxPoint x="700" y="355" as="targetPoint" />
          </mxGeometry>
        </mxCell>
        <mxCell id="VuYZL3EIZXyvQXrnLhFN-1" value="&lt;font style=&quot;font-size: 20px&quot;&gt;Users&lt;/font&gt;" style="rounded=1;whiteSpace=wrap;html=1;" parent="1" vertex="1">
          <mxGeometry x="30" y="165" width="120" height="60" as="geometry" />
        </mxCell>
        <mxCell id="VuYZL3EIZXyvQXrnLhFN-3" value="&lt;font style=&quot;font-size: 20px&quot;&gt;PassingTests&lt;/font&gt;" style="rounded=1;whiteSpace=wrap;html=1;" parent="1" vertex="1">
          <mxGeometry x="246" y="165" width="190" height="60" as="geometry" />
        </mxCell>
        <mxCell id="VuYZL3EIZXyvQXrnLhFN-4" value="&lt;font style=&quot;font-size: 20px&quot;&gt;Tests&lt;/font&gt;" style="rounded=1;whiteSpace=wrap;html=1;" parent="1" vertex="1">
          <mxGeometry x="523" y="165" width="120" height="60" as="geometry" />
        </mxCell>
        <mxCell id="VuYZL3EIZXyvQXrnLhFN-6" value="" style="edgeStyle=orthogonalEdgeStyle;fontSize=12;html=1;endArrow=ERoneToMany;startArrow=ERmandOne;exitX=0.5;exitY=0;exitDx=0;exitDy=0;entryX=0.25;entryY=0;entryDx=0;entryDy=0;" parent="1" source="VuYZL3EIZXyvQXrnLhFN-1" target="VuYZL3EIZXyvQXrnLhFN-4" edge="1">
          <mxGeometry width="100" height="100" relative="1" as="geometry">
            <mxPoint x="452" y="450" as="sourcePoint" />
            <mxPoint x="152" y="61" as="targetPoint" />
            <Array as="points">
              <mxPoint x="90" y="120" />
              <mxPoint x="553" y="120" />
            </Array>
          </mxGeometry>
        </mxCell>
        <mxCell id="VuYZL3EIZXyvQXrnLhFN-10" value="&lt;font style=&quot;font-size: 14px&quot;&gt;&amp;nbsp;author&amp;nbsp;&lt;/font&gt;" style="edgeLabel;html=1;align=center;verticalAlign=middle;resizable=0;points=[];labelBorderColor=#000000;" parent="VuYZL3EIZXyvQXrnLhFN-6" vertex="1" connectable="0">
          <mxGeometry x="0.0163" y="1" relative="1" as="geometry">
            <mxPoint as="offset" />
          </mxGeometry>
        </mxCell>
        <mxCell id="VuYZL3EIZXyvQXrnLhFN-8" value="&lt;font style=&quot;font-size: 20px&quot;&gt;Categories&lt;/font&gt;" style="rounded=1;whiteSpace=wrap;html=1;" parent="1" vertex="1">
          <mxGeometry x="523" y="25" width="120" height="60" as="geometry" />
        </mxCell>
        <mxCell id="VuYZL3EIZXyvQXrnLhFN-9" value="" style="fontSize=12;html=1;endArrow=ERoneToMany;startArrow=ERmandOne;exitX=0.5;exitY=1;exitDx=0;exitDy=0;" parent="1" source="VuYZL3EIZXyvQXrnLhFN-8" target="VuYZL3EIZXyvQXrnLhFN-4" edge="1">
          <mxGeometry width="100" height="100" relative="1" as="geometry">
            <mxPoint x="279" y="400" as="sourcePoint" />
            <mxPoint x="742" y="400" as="targetPoint" />
          </mxGeometry>
        </mxCell>
        <mxCell id="VuYZL3EIZXyvQXrnLhFN-15" value="&lt;font style=&quot;font-size: 20px&quot;&gt;Questions&lt;/font&gt;" style="rounded=1;whiteSpace=wrap;html=1;" parent="1" vertex="1">
          <mxGeometry x="523" y="313" width="120" height="60" as="geometry" />
        </mxCell>
        <mxCell id="VuYZL3EIZXyvQXrnLhFN-16" value="" style="fontSize=12;html=1;endArrow=ERzeroToMany;startArrow=ERmandOne;exitX=0.5;exitY=1;exitDx=0;exitDy=0;entryX=0.5;entryY=0;entryDx=0;entryDy=0;endFill=1;" parent="1" source="VuYZL3EIZXyvQXrnLhFN-4" target="VuYZL3EIZXyvQXrnLhFN-15" edge="1">
          <mxGeometry width="100" height="100" relative="1" as="geometry">
            <mxPoint x="594" y="246" as="sourcePoint" />
            <mxPoint x="594" y="326" as="targetPoint" />
          </mxGeometry>
        </mxCell>
        <mxCell id="VuYZL3EIZXyvQXrnLhFN-17" value="&lt;font style=&quot;font-size: 20px&quot;&gt;Answers&lt;/font&gt;" style="rounded=1;whiteSpace=wrap;html=1;" parent="1" vertex="1">
          <mxGeometry x="523" y="460" width="120" height="60" as="geometry" />
        </mxCell>
        <mxCell id="VuYZL3EIZXyvQXrnLhFN-18" value="" style="fontSize=12;html=1;endArrow=ERzeroToMany;startArrow=ERmandOne;exitX=0.5;exitY=1;exitDx=0;exitDy=0;entryX=0.5;entryY=0;entryDx=0;entryDy=0;endFill=1;" parent="1" source="VuYZL3EIZXyvQXrnLhFN-15" target="VuYZL3EIZXyvQXrnLhFN-17" edge="1">
          <mxGeometry width="100" height="100" relative="1" as="geometry">
            <mxPoint x="677" y="411" as="sourcePoint" />
            <mxPoint x="677" y="519" as="targetPoint" />
          </mxGeometry>
        </mxCell>
      </root>
    </mxGraphModel>
  </diagram>
</mxfile>
